<svg xmlns="http://www.w3.org/2000/svg" xmlns:xlink="http://www.w3.org/1999/xlink" version="1.1" x="0px" y="0px" viewBox="0 0 53 66.25" style="enable-background:new 0 0 53 53;" xml:space="preserve">
  <g fill="currentColor">
    <path d="M47.0600281,3H5.9389954C4.3180237,3,3.0000305,4.3190002,3.0000305,5.9400024v41.1300049   C3.0000305,48.6860046,4.3180237,50,5.9389954,50h41.1210327c1.6209717,0,2.9399414-1.3139954,2.9399414-2.9299927V5.9400024   C49.9999695,4.3190002,48.6809998,3,47.0600281,3 M46.0000305,43.289978c0,1.4940186-1.2160034,2.710022-2.710022,2.710022   H9.7099915c-1.4940186,0-2.7099609-1.2160034-2.7099609-2.710022V9.7099915C7.0000305,8.2160034,8.2159729,7,9.7099915,7   h33.5800171c1.4940186,0,2.710022,1.2160034,2.710022,2.7099915V43.289978z"/>
    <path d="M26.5005188,11.7331238c-6.9680176,0-12.6370239,5.6689758-12.6370239,12.6369934c0,0.276001,0.2230225,0.5,0.5,0.5   h7.2860107c0.276001,0,0.5-0.223999,0.5-0.5c0-2.2910156,1.7869873-4.1549988,4.0379639-4.3190002l-2.4939575-2.9500122   c-0.184021-0.2070007-0.1640015-0.5220032,0.0429688-0.7059937c0.2050171-0.1820068,0.5209961-0.1640015,0.7050171,0.0429993   l3.0269775,3.5809937c0.0380249,0.0440063,0.0629883,0.0939941,0.0840454,0.1440125   c1.8889771,0.473999,3.2979736,2.1730042,3.2979736,4.2070007c0,0.276001,0.223999,0.5,0.5,0.5h7.2860107   c0.2769775,0,0.5-0.223999,0.5-0.5C39.1365051,17.4020996,33.4674988,11.7331238,26.5005188,11.7331238 M19.7295227,17.6000977   c-0.1000366,0.1000061-0.2290039,0.1500244-0.3500366,0.1500244c-0.1289673,0-0.2589722-0.0500183-0.3599854-0.1500244   l-0.3900146-0.3899841c0.2200317-0.25,0.460022-0.4899902,0.710022-0.7099915l0.3900146,0.3899841   C19.9194641,17.0901184,19.9194641,17.400116,19.7295227,17.6000977 M27.0005188,14.5301208c0,0.2799988-0.2200317,0.5-0.5,0.5   c-0.2810059,0-0.5-0.2200012-0.5-0.5v-0.7900085c0.1689453-0.0100098,0.3299561-0.0100098,0.5-0.0100098   c0.1689453,0,0.3299561,0,0.5,0.0100098V14.5301208z M33.9795227,17.6000977   c-0.1000366,0.1000061-0.2290039,0.1500244-0.3590088,0.1500244c-0.1199951,0-0.25-0.0500183-0.3510132-0.1500244   c-0.1890259-0.1999817-0.1890259-0.5099792,0-0.7099915l0.3909912-0.3899841   c0.25,0.2200012,0.4890137,0.4599915,0.710022,0.7099915L33.9795227,17.6000977z"/>
  </g>
</svg>