<svg version="1.0" xmlns="http://www.w3.org/2000/svg"
 width="732.000000pt" height="708.000000pt" viewBox="0 0 732.000000 708.000000"
 preserveAspectRatio="xMidYMid meet">

<g transform="translate(0.000000,708.000000) scale(0.100000,-0.100000)"
fill="#000000" stroke="none">

<path d="M3410 6154 c-141 -13 -372 -49 -494 -77 l-141 -32 -690 -5 c-687 -5
-690 -5 -731 -27 -63 -34 -97 -66 -124 -119 l-25 -49 -3 -2305 c-2 -1645 0
-2316 8 -2345 17 -62 70 -126 131 -160 l54 -30 2304 -3 c1547 -1 2316 1 2341
8 63 17 130 70 164 130 l31 55 0 2325 0 2325 -22 41 c-28 53 -74 99 -127 127
-41 22 -43 22 -736 27 l-695 6 -136 32 c-244 57 -406 74 -754 77 -170 1 -330
1 -355 -1z m525 -164 c197 -12 346 -32 535 -71 132 -28 387 -96 443 -119 12
-5 82 -32 155 -60 110 -43 135 -56 147 -80 8 -16 15 -38 15 -48 0 -17 -81
-213 -322 -782 -39 -91 -94 -222 -124 -293 -69 -166 -80 -183 -132 -208 -49
-24 -56 -23 -189 27 -274 102 -608 148 -899 125 -198 -15 -364 -50 -562 -118
l-164 -55 -43 16 c-57 22 -66 34 -118 156 -42 101 -77 183 -257 610 -46 107
-109 258 -142 335 -33 77 -62 156 -65 176 -10 71 14 89 251 175 463 170 979
245 1471 214z m-1715 -125 c0 -2 -15 -11 -32 -20 -79 -37 -136 -120 -145 -210
-6 -61 6 -104 80 -275 27 -63 135 -317 239 -565 105 -247 197 -463 205 -480
53 -103 152 -165 263 -166 37 0 85 7 110 16 309 113 522 155 780 155 247 0
539 -57 752 -146 113 -47 239 -27 327 52 57 51 64 65 196 379 143 340 244 579
325 770 79 184 90 244 61 329 -17 49 -73 111 -125 139 l-41 22 385 3 c274 2
393 -1 413 -9 61 -26 57 144 57 -2339 0 -1653 -3 -2277 -11 -2293 -6 -12 -21
-30 -33 -39 -20 -17 -156 -18 -2309 -18 l-2289 0 -29 29 -29 29 0 2292 0 2292
29 29 29 29 396 0 c218 0 396 -2 396 -5z"/>
<path d="M2809 5457 c-22 -17 -39 -51 -39 -78 0 -14 20 -42 53 -73 93 -91 821
-751 847 -769 71 -50 161 27 120 103 -5 10 -133 130 -282 266 -150 136 -345
314 -433 394 -88 81 -170 152 -182 158 -28 15 -64 15 -84 -1z"/>
</g>
</svg>
